<mxfile host="app.diagrams.net" modified="2024-04-11T14:14:15.664Z" agent="Mozilla/5.0 (Windows NT 10.0; Win64; x64) AppleWebKit/537.36 (KHTML, like Gecko) Chrome/123.0.0.0 Safari/537.36" etag="anYxXPifm8QQ3-eB0nSj" version="24.2.3" type="github">
  <diagram name="Page-1" id="h49TijKHtshbXExQhrOC">
    <mxGraphModel dx="806" dy="861" grid="1" gridSize="10" guides="1" tooltips="1" connect="1" arrows="1" fold="1" page="1" pageScale="1" pageWidth="850" pageHeight="1100" math="0" shadow="0">
      <root>
        <mxCell id="0" />
        <mxCell id="1" parent="0" />
        <mxCell id="zzLwrkJmqYXiXiZeNMsP-1" value="Usuario" style="swimlane;whiteSpace=wrap;html=1;" vertex="1" parent="1">
          <mxGeometry x="80" y="230" width="110" height="70" as="geometry">
            <mxRectangle x="80" y="230" width="140" height="30" as="alternateBounds" />
          </mxGeometry>
        </mxCell>
        <mxCell id="zzLwrkJmqYXiXiZeNMsP-3" value="Text" style="text;html=1;align=center;verticalAlign=middle;resizable=0;points=[];autosize=1;strokeColor=none;fillColor=none;" vertex="1" parent="zzLwrkJmqYXiXiZeNMsP-1">
          <mxGeometry x="30" y="30" width="50" height="30" as="geometry" />
        </mxCell>
      </root>
    </mxGraphModel>
  </diagram>
</mxfile>
